<svg aria-hidden="true" style="position: absolute; width: 0; height: 0; overflow: hidden;" version="1.1" xmlns="http://www.w3.org/2000/svg" xmlns:xlink="http://www.w3.org/1999/xlink">
<defs>
<symbol id="icon-playstation" viewBox="0 0 32 32">
<path d="M11.98 3.461v23.397l5.22 1.681v-19.623c0-0.92 0.405-1.535 1.059-1.321 0.848 0.241 1.013 1.085 1.013 2.007v7.835c3.255 1.591 5.816-0.003 5.816-4.204 0-4.316-1.501-6.233-5.917-7.769-1.743-0.597-4.971-1.581-7.188-2.003zM18.188 25.117l8.395-3.033c0.953-0.344 1.101-0.833 0.328-1.091-0.781-0.256-2.183-0.185-3.143 0.164l-5.607 1.999v-3.18l0.32-0.113c0 0 1.601-0.56 3.884-0.82 2.261-0.24 5.047 0.039 7.249 0.881 2.464 0.801 2.721 1.963 2.101 2.763s-2.163 1.381-2.163 1.381l-11.392 4.143v-3.063zM2.411 24.8c-2.533-0.727-2.952-2.224-1.803-3.095 1.068-0.78 2.879-1.401 2.879-1.401l7.488-2.684v3.084l-5.367 1.963c-0.94 0.361-1.1 0.843-0.319 1.101 0.781 0.26 2.183 0.2 3.124-0.16l2.584-0.941v2.765c-0.161 0.039-0.341 0.059-0.521 0.097-2.584 0.441-5.327 0.261-8.049-0.639z"></path>
</symbol>
<symbol id="icon-nintendoswitch" viewBox="0 0 32 32">
<path d="M18.901 32h4.899c4.501 0 8.2-3.699 8.2-8.2v-15.6c0-4.5-3.699-8.2-8.2-8.2h-5c-0.099 0-0.2 0.099-0.2 0.2v31.6c-0.001 0.101 0.1 0.2 0.301 0.2zM25 14.401c1.801 0 3.199 1.5 3.199 3.197 0 1.803-1.5 3.2-3.199 3.2-1.8 0-3.2-1.399-3.2-3.2-0.1-1.799 1.4-3.197 3.2-3.197zM15.2 0h-7c-4.5 0-8.2 3.7-8.2 8.2v15.6c0 4.501 3.7 8.2 8.2 8.2h7c0.099 0 0.2-0.099 0.2-0.199v-31.601c0.001-0.101-0.1-0.2-0.2-0.2zM12.901 29.401h-4.701c-3.101 0-5.601-2.5-5.601-5.601v-15.6c0-3.101 2.5-5.601 5.601-5.601h4.6zM5 9.599c0 1.7 1.3 3 3 3s3-1.3 3-3c0-1.697-1.3-3-3-3s-3 1.303-3 3z"></path>
</symbol>
<symbol id="icon-xbox" viewBox="0 0 32 32">
<path d="M5.469 28.044c2.812 2.464 6.5 3.956 10.531 3.956 4.035 0 7.719-1.492 10.536-3.956 2.503-2.549-5.755-11.612-10.536-15.223-4.776 3.611-13.039 12.673-10.531 15.223zM20.349 8.836c3.333 3.948 9.979 13.751 8.101 17.216 2.219-2.745 3.549-6.237 3.549-10.047 0-4.453-1.82-8.483-4.76-11.381 0 0-0.036-0.029-0.109-0.056-0.084-0.029-0.203-0.060-0.375-0.060-0.789 0-2.647 0.579-6.407 4.328zM4.872 4.568c-0.076 0.027-0.109 0.055-0.115 0.056-2.937 2.899-4.757 6.928-4.757 11.381 0 3.805 1.331 7.297 3.548 10.044-1.868-3.473 4.772-13.268 8.107-17.213-3.76-3.751-5.621-4.327-6.408-4.327-0.175 0-0.297 0.028-0.375 0.061zM16 4.735c0 0-3.927-2.297-6.993-2.407-1.204-0.044-1.939 0.393-2.028 0.452 2.86-1.919 5.9-2.78 9-2.78h0.021c3.112 0 6.14 0.861 9.021 2.78-0.091-0.061-0.82-0.496-2.027-0.452-3.067 0.109-6.995 2.399-6.995 2.399z"></path>
</symbol>
<symbol id="icon-discord" viewBox="0 0 32 32">
<path d="M26.963 0c1.875 0 3.387 1.516 3.476 3.3v28.7l-3.569-3.031-1.96-1.784-2.139-1.864 0.893 2.94h-18.717c-1.869 0-3.387-1.42-3.387-3.301v-21.653c0-1.784 1.52-3.303 3.393-3.303h22zM18.805 7.577h-0.040l-0.269 0.267c2.764 0.8 4.101 2.049 4.101 2.049-1.781-0.891-3.387-1.336-4.992-1.516-1.16-0.18-2.32-0.085-3.3 0h-0.267c-0.627 0-1.96 0.267-3.747 0.98-0.623 0.271-0.98 0.448-0.98 0.448s1.336-1.336 4.28-2.049l-0.18-0.18c0 0-2.229-0.085-4.636 1.693 0 0-2.407 4.192-2.407 9.36 0 0 1.333 2.32 4.991 2.408 0 0 0.533-0.711 1.073-1.336-2.053-0.624-2.853-1.872-2.853-1.872s0.179 0.088 0.447 0.267h0.080c0.040 0 0.059 0.020 0.080 0.040v0.008c0.021 0.021 0.040 0.040 0.080 0.040 0.44 0.181 0.88 0.36 1.24 0.533 0.621 0.269 1.42 0.537 2.4 0.715 1.24 0.18 2.661 0.267 4.28 0 0.8-0.18 1.6-0.356 2.4-0.713 0.52-0.267 1.16-0.533 1.863-0.983 0 0-0.8 1.248-2.94 1.872 0.44 0.621 1.060 1.333 1.060 1.333 3.659-0.080 5.080-2.4 5.16-2.301 0-5.16-2.42-9.36-2.42-9.36-2.18-1.619-4.22-1.68-4.58-1.68zM19.029 13.461c0.937 0 1.693 0.8 1.693 1.78 0 0.987-0.76 1.787-1.693 1.787s-1.693-0.8-1.693-1.779c0.003-0.987 0.764-1.784 1.693-1.788zM12.972 13.461c0.933 0 1.688 0.8 1.688 1.78 0 0.987-0.76 1.787-1.693 1.787s-1.693-0.8-1.693-1.779c0-0.987 0.76-1.784 1.699-1.788z"></path>
</symbol>
<symbol id="icon-epicgames" viewBox="0 0 32 32">
<path d="M4.717 0c-1.829 0-2.504 0.675-2.504 2.504v22.087c0 0.207 0.009 0.399 0.025 0.575 0.045 0.403 0.049 0.791 0.423 1.229 0.035 0.051 0.413 0.328 0.413 0.328 0.201 0.101 0.343 0.171 0.573 0.267l11.112 4.656c0.575 0.263 0.817 0.368 1.235 0.353h0.005c0.423 0.015 0.665-0.091 1.24-0.353l11.111-4.656c0.232-0.096 0.368-0.165 0.575-0.267 0 0 0.379-0.283 0.413-0.328 0.373-0.439 0.377-0.827 0.423-1.229 0.016-0.176 0.027-0.368 0.027-0.573v-22.089c-0.001-1.828-0.677-2.503-2.507-2.503zM22.525 4.147h0.907c1.512 0 2.248 0.736 2.248 2.263v2.505h-1.829v-2.404c0-0.489-0.227-0.716-0.7-0.716h-0.312c-0.489 0-0.716 0.227-0.716 0.716v7.751c0 0.488 0.227 0.715 0.716 0.715h0.347c0.469 0 0.696-0.227 0.696-0.715v-2.773h1.835v2.859c0 1.527-0.752 2.277-2.268 2.277h-0.923c-1.521 0-2.267-0.756-2.267-2.277v-7.921c0-1.523 0.745-2.279 2.267-2.279zM6.275 4.248h4.152v1.703h-2.288v3.472h2.203v1.699h-2.203v3.699h2.319v1.699h-4.183zM11.364 4.248h2.928c1.516 0 2.267 0.756 2.267 2.283v3.26c0 1.527-0.751 2.279-2.267 2.279h-1.059v4.449h-1.869zM17.401 4.248h1.864v12.271h-1.864zM13.228 5.901v4.52h0.772c0.468 0 0.695-0.227 0.695-0.72v-3.080c0-0.493-0.227-0.72-0.695-0.72zM8.088 19.44h0.277l0.061 0.009h0.1l0.051 0.016h0.051l0.051 0.015 0.049 0.011 0.045 0.009 0.045 0.011 0.045 0.009 0.051 0.016 0.040 0.009 0.040 0.016 0.051 0.015 0.040 0.020 0.052 0.020 0.045 0.020 0.040 0.027 0.051 0.019 0.035 0.027 0.051 0.024 0.040 0.027 0.045 0.024 0.040 0.031 0.040 0.025 0.040 0.029 0.041 0.031 0.040 0.035 0.040 0.031-0.029 0.040-0.036 0.036-0.029 0.040-0.036 0.040-0.029 0.036-0.031 0.035-0.036 0.040-0.029 0.040-0.031 0.036-0.035 0.040-0.031 0.040-0.036 0.040-0.029 0.036-0.031 0.040-0.035 0.040-0.031 0.041-0.035 0.035-0.031 0.040-0.040-0.029-0.040-0.035-0.040-0.027-0.047-0.029-0.035-0.025-0.045-0.025-0.040-0.025-0.047-0.025-0.080-0.040-0.040-0.015-0.045-0.016-0.051-0.013-0.040-0.011-0.101-0.021-0.051-0.004h-0.055l-0.061-0.011h-0.1l-0.051 0.005h-0.051l-0.051 0.015-0.045 0.011-0.045 0.015-0.049 0.015-0.040 0.020-0.051 0.021-0.076 0.051-0.040 0.024-0.036 0.031-0.035 0.031-0.036 0.029-0.029 0.036-0.040 0.035-0.051 0.076-0.031 0.040-0.020 0.045-0.027 0.040-0.024 0.045-0.015 0.045-0.021 0.045-0.013 0.051-0.007 0.051-0.015 0.045-0.011 0.056v0.049l-0.009 0.051v0.12l0.005 0.052 0.004 0.045 0.005 0.049 0.011 0.051 0.015 0.040 0.005 0.051 0.015 0.040 0.016 0.040 0.020 0.052 0.025 0.049 0.020 0.040 0.025 0.040 0.029 0.041 0.031 0.040 0.025 0.036 0.040 0.035 0.031 0.036 0.035 0.029 0.080 0.061 0.041 0.025 0.040 0.024 0.045 0.021 0.051 0.020 0.040 0.020 0.051 0.015 0.051 0.016 0.051 0.009 0.049 0.011 0.051 0.005 0.061 0.004h0.165l0.061-0.009h0.049l0.051-0.016 0.051-0.009 0.051-0.016 0.045-0.009 0.045-0.020 0.040-0.020 0.051-0.021 0.031-0.020 0.040-0.025v-0.463h-0.736v-0.747h1.663v1.664l-0.035 0.029-0.040 0.031-0.036 0.025-0.040 0.031-0.040 0.024-0.040 0.031-0.040 0.025-0.041 0.025-0.051 0.025-0.045 0.025-0.040 0.025-0.051 0.020-0.040 0.025-0.152 0.060-0.045 0.020-0.045 0.015-0.045 0.016-0.049 0.015-0.045 0.015-0.051 0.016-0.045 0.009-0.101 0.021-0.051 0.009-0.049 0.005-0.101 0.011-0.060 0.004-0.051 0.005-0.056 0.005h-0.261l-0.056-0.011h-0.051l-0.049-0.009h-0.051l-0.051-0.016-0.051-0.009-0.051-0.011-0.049-0.009-0.040-0.016-0.051-0.009-0.051-0.016-0.045-0.020-0.045-0.015-0.051-0.020-0.045-0.020-0.051-0.020-0.040-0.021-0.051-0.024-0.035-0.027-0.051-0.024-0.036-0.027-0.040-0.024-0.080-0.061-0.045-0.029-0.031-0.031-0.040-0.031-0.036-0.035-0.035-0.031-0.036-0.035-0.029-0.036-0.036-0.035-0.029-0.040-0.031-0.036-0.025-0.040-0.031-0.040-0.025-0.040-0.024-0.040-0.027-0.047-0.024-0.040-0.040-0.091-0.021-0.045-0.020-0.045-0.015-0.040-0.020-0.045-0.011-0.045-0.015-0.045-0.011-0.051-0.015-0.045-0.011-0.051-0.004-0.045-0.011-0.051-0.005-0.045-0.004-0.051-0.005-0.049-0.005-0.051v-0.277l0.011-0.051v-0.055l0.013-0.051v-0.051l0.016-0.051 0.016-0.049 0.009-0.051 0.015-0.045 0.016-0.051 0.015-0.045 0.020-0.051 0.020-0.045 0.021-0.045 0.040-0.091 0.025-0.045 0.025-0.040 0.024-0.040 0.027-0.040 0.024-0.040 0.031-0.041 0.031-0.040 0.029-0.040 0.036-0.036 0.029-0.035 0.031-0.036 0.040-0.035 0.031-0.036 0.040-0.031 0.036-0.035 0.040-0.031 0.040-0.029 0.040-0.027 0.040-0.029 0.040-0.025 0.041-0.025 0.045-0.025 0.051-0.025 0.040-0.024 0.051-0.021 0.045-0.020 0.051-0.025 0.040-0.013 0.051-0.016 0.045-0.020 0.045-0.011 0.045-0.015 0.051-0.011 0.045-0.015 0.049-0.011h0.051l0.051-0.015h0.051l0.051-0.011h0.049zM24.073 19.449h0.276l0.061 0.011h0.1l0.051 0.015h0.060l0.051 0.016 0.045 0.009 0.051 0.011 0.051 0.009 0.045 0.011 0.051 0.015 0.049 0.016 0.040 0.009 0.051 0.020 0.051 0.016 0.040 0.020 0.101 0.040 0.045 0.027 0.036 0.019 0.049 0.027 0.045 0.024 0.040 0.025 0.047 0.031 0.040 0.024 0.080 0.061 0.040 0.029-0.029 0.040-0.025 0.041-0.031 0.040-0.029 0.040-0.031 0.045-0.025 0.040-0.031 0.040-0.029 0.041-0.027 0.040-0.029 0.040-0.031 0.040-0.029 0.041-0.027 0.045-0.029 0.040-0.035 0.040-0.027 0.040-0.029 0.041-0.040-0.031-0.045-0.025-0.040-0.024-0.040-0.031-0.047-0.020-0.040-0.027-0.051-0.019-0.035-0.020-0.051-0.021-0.040-0.020-0.040-0.015-0.045-0.020-0.051-0.015-0.051-0.016-0.051-0.015-0.055-0.011-0.051-0.009-0.051-0.011-0.051-0.005-0.049-0.005-0.045-0.004h-0.112l-0.055 0.009-0.051 0.011-0.051 0.009-0.040 0.021-0.035 0.020-0.045 0.040-0.031 0.045-0.020 0.045v0.125l0.025 0.056 0.020 0.031 0.035 0.035 0.051 0.027 0.040 0.024 0.101 0.040 0.065 0.020 0.040 0.011 0.040 0.015 0.051 0.011 0.040 0.015 0.051 0.011 0.056 0.015 0.055 0.015 0.056 0.016 0.056 0.009 0.049 0.016 0.056 0.015 0.051 0.011 0.049 0.015 0.051 0.015 0.051 0.016 0.051 0.015 0.045 0.015 0.051 0.016 0.049 0.020 0.051 0.025 0.051 0.020 0.101 0.051 0.040 0.025 0.040 0.024 0.045 0.031 0.036 0.027 0.045 0.035 0.111 0.111 0.025 0.040 0.035 0.051 0.025 0.035 0.020 0.051 0.025 0.035 0.015 0.051 0.016 0.040 0.009 0.051 0.011 0.051 0.009 0.051 0.005 0.051 0.005 0.049v0.127l-0.005 0.055-0.005 0.051-0.004 0.056-0.011 0.051-0.015 0.049-0.011 0.051-0.015 0.051-0.020 0.045-0.020 0.040-0.021 0.045-0.024 0.040-0.031 0.040-0.027 0.040-0.024 0.041-0.035 0.036-0.031 0.035-0.036 0.031-0.040 0.035-0.035 0.031-0.040 0.031-0.040 0.024-0.041 0.031-0.091 0.045-0.051 0.027-0.051 0.019-0.049 0.020-0.051 0.016-0.051 0.015-0.040 0.015-0.101 0.021-0.040 0.009-0.051 0.011h-0.051l-0.049 0.009h-0.051l-0.051 0.011h-0.373l-0.049-0.005-0.051-0.005-0.056-0.004-0.051-0.011-0.049-0.005-0.051-0.009-0.051-0.011-0.056-0.015-0.049-0.011-0.051-0.015-0.051-0.011-0.051-0.015-0.049-0.016-0.051-0.020-0.045-0.015-0.051-0.015-0.051-0.021-0.040-0.020-0.051-0.020-0.040-0.025-0.051-0.020-0.045-0.025-0.035-0.025-0.051-0.025-0.036-0.024-0.045-0.027-0.040-0.029-0.040-0.031-0.040-0.029-0.040-0.031-0.036-0.031-0.040-0.035 0.029-0.040 0.036-0.036 0.031-0.040 0.035-0.040 0.031-0.036 0.029-0.040 0.036-0.040 0.031-0.036 0.035-0.040 0.031-0.035 0.035-0.040 0.031-0.040 0.029-0.036 0.036-0.040 0.031-0.040 0.035-0.036 0.036-0.040 0.035 0.029 0.051 0.031 0.035 0.031 0.051 0.029 0.040 0.027 0.045 0.029 0.040 0.025 0.047 0.020 0.040 0.025 0.045 0.020 0.051 0.020 0.040 0.020 0.051 0.015 0.040 0.021 0.051 0.013 0.049 0.016 0.051 0.016 0.051 0.009 0.051 0.011 0.051 0.009h0.055l0.051 0.016h0.277l0.051-0.011 0.049-0.011 0.040-0.009 0.040-0.015 0.036-0.021 0.045-0.029 0.027-0.036 0.024-0.040 0.015-0.051v-0.116l-0.020-0.049-0.029-0.040-0.031-0.031-0.045-0.031-0.036-0.020-0.049-0.020-0.051-0.020-0.060-0.027-0.036-0.009-0.040-0.011-0.051-0.013-0.040-0.011-0.051-0.016-0.051-0.009-0.055-0.016-0.051-0.009-0.056-0.016-0.049-0.009-0.051-0.016-0.051-0.009-0.051-0.016-0.051-0.013-0.049-0.011-0.045-0.016-0.045-0.015-0.045-0.016-0.051-0.020-0.056-0.020-0.051-0.020-0.049-0.020-0.101-0.051-0.035-0.025-0.051-0.025-0.036-0.029-0.045-0.027-0.029-0.029-0.036-0.035-0.040-0.036-0.031-0.035-0.029-0.036-0.027-0.035-0.024-0.040-0.027-0.045-0.019-0.036-0.016-0.040-0.015-0.045-0.015-0.040-0.011-0.051-0.009-0.045v-0.051l-0.011-0.051v-0.216l0.011-0.101 0.009-0.040 0.011-0.051 0.015-0.040 0.011-0.051 0.020-0.040 0.020-0.051 0.045-0.091 0.025-0.040 0.035-0.040 0.027-0.040 0.040-0.040 0.035-0.036 0.031-0.040 0.045-0.036 0.029-0.025 0.045-0.031 0.040-0.029 0.040-0.027 0.051-0.024 0.040-0.020 0.052-0.025 0.040-0.020 0.051-0.016 0.049-0.020 0.051-0.015 0.036-0.011 0.049-0.009 0.040-0.011 0.051-0.009 0.051-0.011 0.101-0.011 0.051-0.004zM11.757 19.485h0.943l0.060 0.136 0.015 0.051 0.040 0.091 0.021 0.045 0.020 0.045 0.015 0.045 0.025 0.049 0.020 0.045 0.020 0.047 0.011 0.045 0.020 0.045 0.025 0.045 0.020 0.049 0.020 0.045 0.015 0.045 0.020 0.045 0.027 0.045 0.013 0.045 0.021 0.051 0.015 0.051 0.020 0.040 0.027 0.051 0.019 0.040 0.020 0.051 0.016 0.051 0.015 0.040 0.045 0.091 0.020 0.051 0.015 0.040 0.021 0.051 0.025 0.051 0.020 0.045 0.029 0.091 0.020 0.045 0.027 0.045 0.019 0.049 0.021 0.047 0.013 0.045 0.021 0.045 0.040 0.091 0.020 0.049 0.016 0.045 0.020 0.045 0.025 0.045 0.040 0.091 0.011 0.051 0.020 0.045 0.025 0.045 0.020 0.045 0.015 0.045 0.020 0.045 0.020 0.051 0.027 0.051 0.013 0.040 0.021 0.051 0.015 0.040 0.020 0.051 0.045 0.091 0.015 0.051 0.021 0.040 0.015 0.051 0.025 0.040 0.020 0.051 0.015 0.051 0.020 0.040 0.021 0.051 0.024 0.040 0.021 0.051 0.013 0.049 0.016 0.040 0.020 0.051 0.027 0.040h-1.044l-0.027-0.044-0.013-0.045-0.021-0.045-0.020-0.051-0.015-0.045-0.040-0.091-0.016-0.045-0.040-0.091-0.015-0.045-0.020-0.051-0.020-0.045-0.016-0.045-0.020-0.045h-1.447l-0.020 0.051-0.015 0.040-0.020 0.051-0.025 0.049-0.011 0.040-0.020 0.052-0.020 0.040-0.015 0.051-0.020 0.040-0.020 0.051-0.016 0.040-0.020 0.051-0.020 0.049-0.020 0.040-0.015 0.051h-1.033l0.020-0.049 0.040-0.091 0.016-0.051 0.013-0.045 0.027-0.045 0.040-0.091 0.015-0.045 0.020-0.051 0.027-0.045 0.019-0.045 0.016-0.045 0.015-0.045 0.020-0.045 0.027-0.051 0.019-0.045 0.020-0.045 0.016-0.045 0.040-0.091 0.040-0.101 0.016-0.040 0.020-0.051 0.025-0.040 0.020-0.051 0.015-0.049 0.015-0.040 0.020-0.051 0.027-0.040 0.019-0.051 0.021-0.040 0.013-0.051 0.021-0.051 0.025-0.040 0.015-0.051 0.020-0.040 0.016-0.051 0.020-0.051 0.025-0.040 0.020-0.051 0.015-0.040 0.020-0.051 0.016-0.040 0.025-0.051 0.020-0.051 0.020-0.045 0.015-0.045 0.020-0.045 0.027-0.045 0.019-0.045 0.011-0.051 0.040-0.091 0.025-0.045 0.020-0.045 0.015-0.045 0.021-0.051 0.020-0.049 0.020-0.040 0.020-0.051 0.015-0.040 0.040-0.101 0.027-0.040 0.019-0.051 0.016-0.040 0.015-0.051 0.020-0.040 0.027-0.051 0.019-0.051 0.016-0.040 0.020-0.051 0.045-0.091 0.015-0.051 0.015-0.040 0.021-0.051zM14.68 19.511h1.033l0.029 0.040 0.027 0.045 0.029 0.040 0.025 0.045 0.025 0.040 0.025 0.045 0.024 0.040 0.031 0.047 0.051 0.080 0.025 0.045 0.025 0.040 0.035 0.045 0.020 0.040 0.027 0.047 0.029 0.040 0.031 0.040 0.020 0.045 0.029 0.040 0.027 0.045 0.019 0.040 0.036 0.047 0.025 0.040 0.025 0.045 0.025 0.040 0.024 0.040 0.031 0.045 0.025 0.040 0.025 0.047 0.025 0.040 0.025 0.045 0.029 0.040 0.027 0.045 0.024 0.040 0.031-0.040 0.020-0.051 0.031-0.035 0.029-0.051 0.027-0.035 0.019-0.051 0.036-0.036 0.025-0.049 0.020-0.036 0.031-0.040 0.029-0.051 0.027-0.035 0.024-0.051 0.025-0.036 0.031-0.049 0.024-0.036 0.027-0.051 0.024-0.035 0.027-0.040 0.029-0.051 0.025-0.036 0.025-0.049 0.029-0.036 0.027-0.051 0.024-0.035 0.031-0.040 0.025-0.051 0.029-0.036 0.027-0.049 0.024-0.036 0.027-0.051 0.029-0.035 0.025-0.051 0.025-0.035h1.043v3.719h-0.979v-2.187l-0.024 0.035-0.031 0.051-0.025 0.035-0.031 0.040-0.025 0.051-0.029 0.036-0.027 0.040-0.029 0.051-0.025 0.035-0.025 0.040-0.035 0.040-0.025 0.052-0.031 0.035-0.025 0.040-0.024 0.051-0.031 0.035-0.025 0.040-0.031 0.051-0.025 0.036-0.029 0.040-0.027 0.051-0.024 0.035-0.031 0.040-0.025 0.051-0.029 0.036-0.031 0.040-0.025 0.040-0.025 0.051-0.031 0.036-0.029 0.040-0.020 0.051-0.036 0.035-0.025 0.040-0.029 0.051-0.027 0.036h-0.019l-0.031-0.045-0.025-0.040-0.031-0.047-0.025-0.040-0.029-0.045-0.027-0.040-0.029-0.045-0.025-0.040-0.029-0.045-0.027-0.040-0.035-0.047-0.020-0.040-0.031-0.045-0.029-0.040-0.027-0.045-0.029-0.040-0.025-0.051-0.029-0.040-0.027-0.045-0.029-0.040-0.025-0.047-0.031-0.040-0.024-0.045-0.031-0.040-0.025-0.045-0.031-0.040-0.025-0.045-0.029-0.040-0.027-0.047-0.029-0.040-0.025-0.045-0.035-0.040-0.020-0.045-0.031-0.040v2.192h-0.967v-3.68zM19.307 19.511h2.932v0.84h-1.96v0.596h1.763v0.791h-1.761v0.64h1.985v0.841h-2.953zM12.216 20.649l-0.020 0.051-0.016 0.040-0.020 0.051-0.020 0.049-0.015 0.045-0.020 0.045-0.021 0.051-0.020 0.051-0.015 0.040-0.020 0.051-0.020 0.040-0.016 0.051-0.020 0.051-0.020 0.040-0.015 0.051-0.020 0.040-0.020 0.051-0.021 0.051-0.013 0.040-0.021 0.051-0.020 0.051-0.015 0.040-0.021 0.051h0.857l-0.020-0.051-0.016-0.045-0.020-0.051-0.020-0.045-0.015-0.045-0.020-0.045-0.020-0.051-0.016-0.045-0.040-0.091-0.015-0.045-0.020-0.051-0.016-0.045-0.040-0.091-0.015-0.045-0.020-0.049-0.020-0.051-0.016-0.040-0.040-0.101-0.015-0.045zM10.683 27.613h10.684l-5.453 1.8z"></path>
</symbol>
<symbol id="icon-steam" viewBox="0 0 32 32">
<path d="M15.972 0c-8.401 0-15.291 6.48-15.943 14.716l8.576 3.544c0.727-0.495 1.604-0.787 2.549-0.787 0.084 0 0.167 0.005 0.251 0.008l3.815-5.523v-0.079c0-3.327 2.704-6.032 6.032-6.032 3.325 0 6.032 2.708 6.032 6.036s-2.707 6.033-6.032 6.033h-0.14l-5.435 3.881c0 0.069 0.005 0.14 0.005 0.212 0 2.5-2.020 4.528-4.52 4.528-2.18 0-4.021-1.564-4.441-3.636l-6.14-2.543c1.901 6.716 8.067 11.64 15.391 11.64 8.836 0 15.999-7.164 15.999-16s-7.164-16-15.999-16zM10.053 24.28l-1.964-0.813c0.349 0.724 0.952 1.332 1.752 1.667 1.729 0.719 3.724-0.101 4.443-1.833 0.351-0.84 0.352-1.759 0.007-2.599s-1-1.495-1.836-1.844c-0.832-0.347-1.72-0.332-2.504-0.040l2.031 0.84c1.275 0.533 1.879 2 1.345 3.273-0.529 1.276-1.996 1.88-3.272 1.349zM25.273 11.876c0-2.216-1.804-4.020-4.020-4.020-2.22 0-4.020 1.804-4.020 4.020 0 2.22 1.8 4.020 4.020 4.020 2.217 0 4.020-1.8 4.020-4.020zM18.243 11.869c0-1.669 1.351-3.021 3.020-3.021 1.665 0 3.021 1.352 3.021 3.021 0 1.668-1.356 3.020-3.021 3.020-1.671 0-3.020-1.352-3.020-3.020z"></path>
</symbol>
<symbol id="icon-facebook" viewBox="0 0 32 32">
<path d="M31.997 15.999c0-8.836-7.163-15.999-15.999-15.999s-15.999 7.163-15.999 15.999c0 7.985 5.851 14.604 13.499 15.804v-11.18h-4.062v-4.625h4.062v-3.525c0-4.010 2.389-6.225 6.043-6.225 1.75 0 3.581 0.313 3.581 0.313v3.937h-2.017c-1.987 0-2.607 1.233-2.607 2.498v3.001h4.437l-0.709 4.625h-3.728v11.18c7.649-1.2 13.499-7.819 13.499-15.804z"></path>
</symbol>
<symbol id="icon-twitter" viewBox="0 0 32 32">
<path d="M31.939 6.092c-1.18 0.519-2.44 0.872-3.767 1.033 1.352-0.815 2.392-2.099 2.884-3.631-1.268 0.74-2.673 1.279-4.169 1.579-1.195-1.279-2.897-2.079-4.788-2.079-3.623 0-6.56 2.937-6.56 6.556 0 0.52 0.060 1.020 0.169 1.499-5.453-0.257-10.287-2.876-13.521-6.835-0.569 0.963-0.888 2.081-0.888 3.3 0 2.28 1.16 4.284 2.917 5.461-1.076-0.035-2.088-0.331-2.971-0.821v0.081c0 3.18 2.257 5.832 5.261 6.436-0.551 0.148-1.132 0.228-1.728 0.228-0.419 0-0.82-0.040-1.221-0.115 0.841 2.604 3.26 4.503 6.139 4.556-2.24 1.759-5.079 2.807-8.136 2.807-0.52 0-1.039-0.031-1.56-0.089 2.919 1.859 6.357 2.945 10.076 2.945 12.072 0 18.665-9.995 18.665-18.648 0-0.279 0-0.56-0.020-0.84 1.281-0.919 2.4-2.080 3.28-3.397z"></path>
</symbol>
<symbol id="icon-instagram" viewBox="0 0 32 32">
<path d="M16 0c-4.347 0-4.889 0.020-6.596 0.096-1.704 0.080-2.864 0.348-3.884 0.744-1.052 0.408-1.945 0.956-2.835 1.845s-1.439 1.781-1.845 2.835c-0.396 1.020-0.665 2.18-0.744 3.884-0.080 1.707-0.096 2.249-0.096 6.596s0.020 4.889 0.096 6.596c0.080 1.703 0.348 2.864 0.744 3.884 0.408 1.051 0.956 1.945 1.845 2.835 0.889 0.888 1.781 1.439 2.835 1.845 1.021 0.395 2.181 0.665 3.884 0.744 1.707 0.080 2.249 0.096 6.596 0.096s4.889-0.020 6.596-0.096c1.703-0.080 2.864-0.349 3.884-0.744 1.051-0.408 1.945-0.957 2.835-1.845 0.888-0.889 1.439-1.78 1.845-2.835 0.395-1.020 0.665-2.181 0.744-3.884 0.080-1.707 0.096-2.249 0.096-6.596s-0.020-4.889-0.096-6.596c-0.080-1.703-0.349-2.865-0.744-3.884-0.408-1.052-0.957-1.945-1.845-2.835-0.889-0.889-1.78-1.439-2.835-1.845-1.020-0.396-2.181-0.665-3.884-0.744-1.707-0.080-2.249-0.096-6.596-0.096zM16 2.88c4.271 0 4.78 0.021 6.467 0.095 1.56 0.073 2.407 0.332 2.969 0.553 0.749 0.289 1.28 0.636 1.843 1.195 0.559 0.56 0.905 1.092 1.195 1.841 0.219 0.563 0.48 1.409 0.551 2.969 0.076 1.688 0.093 2.195 0.093 6.467s-0.020 4.78-0.099 6.467c-0.081 1.56-0.341 2.407-0.561 2.969-0.299 0.749-0.639 1.28-1.199 1.843-0.559 0.559-1.099 0.905-1.84 1.195-0.56 0.219-1.42 0.48-2.98 0.551-1.699 0.076-2.199 0.093-6.479 0.093-4.281 0-4.781-0.020-6.479-0.099-1.561-0.081-2.421-0.341-2.981-0.561-0.759-0.299-1.28-0.639-1.839-1.199-0.561-0.559-0.92-1.099-1.2-1.84-0.22-0.56-0.479-1.42-0.56-2.98-0.060-1.68-0.081-2.199-0.081-6.459 0-4.261 0.021-4.781 0.081-6.481 0.081-1.56 0.34-2.419 0.56-2.979 0.28-0.76 0.639-1.28 1.2-1.841 0.559-0.559 1.080-0.919 1.839-1.197 0.56-0.221 1.401-0.481 2.961-0.561 1.7-0.060 2.2-0.080 6.479-0.080zM16 7.784c-4.54 0-8.216 3.68-8.216 8.216 0 4.54 3.68 8.216 8.216 8.216 4.54 0 8.216-3.68 8.216-8.216 0-4.54-3.68-8.216-8.216-8.216zM16 21.333c-2.947 0-5.333-2.387-5.333-5.333s2.387-5.333 5.333-5.333 5.333 2.387 5.333 5.333-2.387 5.333-5.333 5.333zM26.461 7.46c0 1.060-0.861 1.92-1.92 1.92-1.060 0-1.92-0.861-1.92-1.92s0.861-1.919 1.92-1.919c1.057-0.001 1.92 0.86 1.92 1.919z"></path>
</symbol>
<symbol id="icon-youtube" viewBox="0 0 32 32">
<path d="M31.327 8.273c-0.386-1.353-1.431-2.398-2.756-2.777l-0.028-0.007c-2.493-0.668-12.528-0.668-12.528-0.668s-10.009-0.013-12.528 0.668c-1.353 0.386-2.398 1.431-2.777 2.756l-0.007 0.028c-0.443 2.281-0.696 4.903-0.696 7.585 0 0.054 0 0.109 0 0.163l-0-0.008c-0 0.037-0 0.082-0 0.126 0 2.682 0.253 5.304 0.737 7.845l-0.041-0.26c0.386 1.353 1.431 2.398 2.756 2.777l0.028 0.007c2.491 0.669 12.528 0.669 12.528 0.669s10.008 0 12.528-0.669c1.353-0.386 2.398-1.431 2.777-2.756l0.007-0.028c0.425-2.233 0.668-4.803 0.668-7.429 0-0.099-0-0.198-0.001-0.297l0 0.015c0.001-0.092 0.001-0.201 0.001-0.31 0-2.626-0.243-5.196-0.708-7.687l0.040 0.258zM12.812 20.801v-9.591l8.352 4.803z"></path>
</symbol>
<symbol id="icon-twitch" viewBox="0 0 32 32">
<path d="M2.785 0l-2.085 5.567v22.259h7.648v4.175h4.176l4.169-4.176h6.26l8.347-8.344v-19.48zM5.567 2.78h22.953v15.305l-4.869 4.869h-7.651l-4.169 4.169v-4.169h-6.264zM13.22 16.696h2.78v-8.347h-2.78zM20.867 16.696h2.781v-8.347h-2.781z"></path>
</symbol>
<symbol id="icon-patreon" viewBox="0 0 32 32">
<path d="M20.515 0.699c-6.352 0-11.52 5.168-11.52 11.52 0 6.333 5.168 11.484 11.52 11.484 6.333 0 11.485-5.152 11.485-11.484 0-6.352-5.152-11.52-11.485-11.52zM0.004 31.383h5.627v-30.684h-5.627z"></path>
</symbol>
<symbol id="icon-bookmark" viewBox="0 0 20 20">
<path d="M14 2v17l-4-4-4 4v-17c0-0.553 0.585-1.020 1-1h6c0.689-0.020 1 0.447 1 1z"></path>
</symbol>
<symbol id="icon-trash" viewBox="0 0 20 20">
<path d="M3.389 7.113l1.101 10.908c0.061 0.461 2.287 1.977 5.51 1.979 3.225-0.002 5.451-1.518 5.511-1.979l1.102-10.908c-1.684 0.942-4.201 1.387-6.613 1.387-2.41 0-4.928-0.445-6.611-1.387zM13.168 1.51l-0.859-0.951c-0.332-0.473-0.692-0.559-1.393-0.559h-1.831c-0.7 0-1.061 0.086-1.392 0.559l-0.859 0.951c-2.57 0.449-4.434 1.64-4.434 2.519v0.17c0 1.547 3.403 2.801 7.6 2.801 4.198 0 7.601-1.254 7.601-2.801v-0.17c0-0.879-1.863-2.070-4.433-2.519zM12.070 4.34l-1.070-1.34h-2l-1.068 1.34h-1.7c0 0 1.862-2.221 2.111-2.522 0.19-0.23 0.384-0.318 0.636-0.318h2.043c0.253 0 0.447 0.088 0.637 0.318 0.248 0.301 2.111 2.522 2.111 2.522h-1.7z"></path>
</symbol>
<symbol id="icon-chat" viewBox="0 0 20 20">
<path d="M5.8 12.2v-6.2h-3.8c-1.1 0-2 0.9-2 2v6c0 1.1 0.9 2 2 2h1v3l3-3h5c1.1 0 2-0.9 2-2v-1.82c-0.064 0.014-0.132 0.021-0.2 0.021l-7-0.001zM18 1h-9c-1.1 0-2 0.9-2 2v8h7l3 3v-3h1c1.1 0 2-0.899 2-2v-6c0-1.1-0.9-2-2-2z"></path>
</symbol>
<symbol id="icon-cross" viewBox="0 0 20 20">
<path d="M14.348 14.849c-0.469 0.469-1.229 0.469-1.697 0l-2.651-3.030-2.651 3.029c-0.469 0.469-1.229 0.469-1.697 0-0.469-0.469-0.469-1.229 0-1.697l2.758-3.15-2.759-3.152c-0.469-0.469-0.469-1.228 0-1.697s1.228-0.469 1.697 0l2.652 3.031 2.651-3.031c0.469-0.469 1.228-0.469 1.697 0s0.469 1.229 0 1.697l-2.758 3.152 2.758 3.15c0.469 0.469 0.469 1.229 0 1.698z"></path>
</symbol>
<symbol id="icon-edit" viewBox="0 0 20 20">
<path d="M17.561 2.439c-1.442-1.443-2.525-1.227-2.525-1.227l-12.826 12.825-1.010 4.762 4.763-1.010 12.826-12.823c-0.001 0 0.216-1.083-1.228-2.527zM5.68 17.217l-1.624 0.35c-0.156-0.293-0.345-0.586-0.69-0.932s-0.639-0.533-0.932-0.691l0.35-1.623 0.47-0.469c0 0 0.883 0.018 1.881 1.016 0.997 0.996 1.016 1.881 1.016 1.881l-0.471 0.468z"></path>
</symbol>
<symbol id="icon-eye" viewBox="0 0 20 20">
<path d="M10 4.4c-6.561 0-10 4.832-10 5.6 0 0.766 3.439 5.6 10 5.6s10-4.834 10-5.6c0-0.768-3.44-5.6-10-5.6zM10 14.307c-2.455 0-4.445-1.928-4.445-4.307s1.99-4.309 4.445-4.309c2.455 0 4.444 1.93 4.444 4.309s-1.989 4.307-4.444 4.307zM10 10c-0.407-0.447 0.663-2.154 0-2.154-1.228 0-2.223 0.965-2.223 2.154s0.995 2.154 2.223 2.154c1.227 0 2.223-0.965 2.223-2.154 0-0.547-1.877 0.379-2.223 0z"></path>
</symbol>
<symbol id="icon-flash" viewBox="0 0 20 20">
<path d="M6.803 18.998c-0.194-0.127 3.153-7.16 3.038-7.469s-3.665-1.436-3.838-1.979c-0.174-0.543 7.007-8.707 7.196-8.549s-3.129 7.238-3.039 7.469c0.091 0.23 3.728 1.404 3.838 1.979s-7.002 8.676-7.195 8.549z"></path>
</symbol>
<symbol id="icon-home" viewBox="0 0 20 20">
<path d="M18.672 11h-1.672v6c0 0.445-0.194 1-1 1h-4v-6h-4v6h-4c-0.806 0-1-0.555-1-1v-6h-1.672c-0.598 0-0.47-0.324-0.060-0.748l8.024-8.032c0.195-0.202 0.451-0.302 0.708-0.312 0.257 0.010 0.513 0.109 0.708 0.312l8.023 8.031c0.411 0.425 0.539 0.749-0.059 0.749z"></path>
</symbol>
<symbol id="icon-image" viewBox="0 0 20 20">
<path d="M19 2h-18c-0.553 0-1 0.447-1 1v14c0 0.552 0.447 1 1 1h18c0.553 0 1-0.448 1-1v-14c0-0.552-0.447-1-1-1zM18 16h-16v-12h16v12zM14.315 10.877l-3.231 1.605-3.77-6.101-3.314 7.619h12l-1.685-3.123zM13.25 9c0.69 0 1.25-0.56 1.25-1.25s-0.56-1.25-1.25-1.25-1.25 0.56-1.25 1.25 0.56 1.25 1.25 1.25z"></path>
</symbol>
<symbol id="icon-key" viewBox="0 0 20 20">
<path d="M17.691 4.725c-0.503-2.977-3.22-4.967-6.069-4.441s-5.256 2.816-4.753 5.795c0.107 0.641 0.408 1.644 0.763 2.365l-5.175 7.723c-0.191 0.285-0.299 0.799-0.242 1.141l0.333 1.971c0.058 0.342 0.372 0.572 0.7 0.514l1.516-0.281c0.328-0.059 0.744-0.348 0.924-0.639l2.047-3.311 0.018-0.022 1.386-0.256 2.39-3.879c0.785 0.139 1.912 0.092 2.578-0.031 2.848-0.526 4.087-3.67 3.584-6.649zM15.166 6.252c-0.784 1.17-1.584 0.346-2.703-0.475-1.119-0.818-2.135-1.322-1.352-2.492s2.326-1.455 3.447-0.635c1.12 0.819 1.391 2.432 0.608 3.602z"></path>
</symbol>
<symbol id="icon-location-pin" viewBox="0 0 20 20">
<path d="M10 2.009c-2.762 0-5 2.229-5 4.99 0 4.774 5 11 5 11s5-6.227 5-11c0-2.76-2.238-4.99-5-4.99zM10 9.76c-1.492 0-2.7-1.209-2.7-2.7s1.208-2.7 2.7-2.7c1.49 0 2.699 1.209 2.699 2.7s-1.209 2.7-2.699 2.7z"></path>
</symbol>
<symbol id="icon-log-out" viewBox="0 0 20 20">
<path d="M19 10l-6-5v3h-7v4h7v3l6-5zM3 3h8v-2h-8c-1.1 0-2 0.9-2 2v14c0 1.1 0.9 2 2 2h8v-2h-8v-14z"></path>
</symbol>
<symbol id="icon-magnifying-glass" viewBox="0 0 20 20">
<path d="M17.545 15.467l-3.779-3.779c0.57-0.935 0.898-2.035 0.898-3.21 0-3.417-2.961-6.377-6.378-6.377s-6.186 2.769-6.186 6.186c0 3.416 2.961 6.377 6.377 6.377 1.137 0 2.2-0.309 3.115-0.844l3.799 3.801c0.372 0.371 0.975 0.371 1.346 0l0.943-0.943c0.371-0.371 0.236-0.84-0.135-1.211zM4.004 8.287c0-2.366 1.917-4.283 4.282-4.283s4.474 2.107 4.474 4.474c0 2.365-1.918 4.283-4.283 4.283s-4.473-2.109-4.473-4.474z"></path>
</symbol>
<symbol id="icon-mail" viewBox="0 0 20 20">
<path d="M1.574 5.286c0.488 0.262 7.248 3.894 7.5 4.029s0.578 0.199 0.906 0.199c0.328 0 0.654-0.064 0.906-0.199s7.012-3.767 7.5-4.029c0.489-0.263 0.951-1.286 0.054-1.286h-16.919c-0.897 0-0.435 1.023 0.053 1.286zM18.613 7.489c-0.555 0.289-7.387 3.849-7.727 4.027s-0.578 0.199-0.906 0.199-0.566-0.021-0.906-0.199-7.133-3.739-7.688-4.028c-0.39-0.204-0.386 0.035-0.386 0.219s0 7.293 0 7.293c0 0.42 0.566 1 1 1h16c0.434 0 1-0.58 1-1 0 0 0-7.108 0-7.292s0.004-0.423-0.387-0.219z"></path>
</symbol>
<symbol id="icon-network" viewBox="0 0 20 20">
<path d="M5.274 6.915c0.2 0 0.394 0.029 0.576 0.086 0.69-0.773 1.455-1.477 2.283-2.1-0.035-0.146-0.054-0.299-0.054-0.455 0-0.217 0.036-0.426 0.102-0.621-0.929-0.664-1.937-1.223-3.011-1.654-1.005 0.621-1.882 1.431-2.582 2.381 0.519 0.92 1.136 1.777 1.838 2.557 0.256-0.124 0.543-0.194 0.848-0.194zM3.316 8.872c0-0.275 0.058-0.537 0.159-0.773-0.628-0.692-1.197-1.436-1.695-2.229-0.625 1.242-0.98 2.645-0.98 4.131 0 1.719 0.474 3.328 1.295 4.705 0.294-1.654 0.851-3.219 1.62-4.652-0.25-0.328-0.399-0.739-0.399-1.182zM10.036 2.489c0.517 0 0.985 0.201 1.336 0.529 1.021-0.439 2.096-0.777 3.215-0.992-1.351-0.779-2.917-1.226-4.587-1.226-1.139 0-2.229 0.209-3.236 0.588 0.799 0.395 1.561 0.855 2.277 1.375 0.292-0.174 0.631-0.274 0.995-0.274zM12.962 11.708c0.122-0.254 0.295-0.479 0.509-0.656-0.578-1.777-1.493-3.404-2.672-4.803-0.234 0.1-0.492 0.154-0.764 0.154-0.425 0-0.816-0.137-1.137-0.365-0.71 0.539-1.367 1.143-1.964 1.803 0.188 0.299 0.297 0.652 0.297 1.031 0 0.203-0.031 0.4-0.090 0.586 1.717 1.146 3.694 1.934 5.821 2.25zM15.501 14.351c0.026 0.371 0.041 0.744 0.041 1.121 0 0.664-0.042 1.318-0.122 1.961 1.56-1.139 2.748-2.758 3.347-4.639-0.71 0.172-1.438 0.295-2.181 0.365-0.173 0.537-0.572 0.969-1.085 1.192zM12.504 13.024c-2.272-0.377-4.377-1.244-6.21-2.484-0.298 0.182-0.647 0.289-1.021 0.289-0.139 0-0.272-0.014-0.402-0.041-0.877 1.662-1.438 3.517-1.599 5.484 0.876 0.94 1.944 1.697 3.145 2.205 1.492-2.293 3.576-4.189 6.087-5.453zM16.176 3.181c-1.475 0.143-2.883 0.514-4.193 1.068 0.006 0.066 0.010 0.131 0.010 0.197 0 0.309-0.074 0.6-0.201 0.859 1.311 1.539 2.327 3.33 2.969 5.291 0.797 0.016 1.477 0.502 1.77 1.195 0.886-0.090 1.748-0.26 2.578-0.504 0.060-0.42 0.092-0.85 0.092-1.287-0.001-2.704-1.167-5.136-3.025-6.819zM13.489 14.069c-2.344 1.098-4.304 2.789-5.723 4.856 0.715 0.179 1.463 0.275 2.234 0.275 1.387 0 2.702-0.309 3.882-0.859 0.19-0.928 0.29-1.887 0.29-2.869 0-0.355-0.016-0.707-0.043-1.055-0.236-0.076-0.453-0.193-0.64-0.348z"></path>
</symbol>
<symbol id="icon-pencil" viewBox="0 0 20 20">
<path d="M14.69 2.661c-1.894-1.379-3.242-1.349-3.754-1.266-0.144 0.023-0.265 0.106-0.35 0.223l-6.883 9.497c-0.277 0.382-0.437 0.836-0.462 1.307l-0.296 5.624c-0.021 0.405 0.382 0.698 0.76 0.553l5.256-2.010c0.443-0.17 0.828-0.465 1.106-0.849l6.88-9.494c0.089-0.123 0.125-0.273 0.1-0.423-0.084-0.526-0.487-1.802-2.357-3.162zM8.977 15.465l-2.043 0.789c-0.080 0.031-0.169 0.006-0.221-0.062-0.263-0.335-0.576-0.667-1.075-1.030-0.499-0.362-0.911-0.558-1.31-0.706-0.080-0.030-0.131-0.106-0.126-0.192l0.122-2.186 0.549-0.755c0 0 1.229-0.169 2.833 0.998 1.602 1.166 1.821 2.388 1.821 2.388l-0.55 0.756z"></path>
</symbol>
<symbol id="icon-share" viewBox="0 0 20 20">
<path d="M15 13.442c-0.633 0-1.204 0.246-1.637 0.642l-5.938-3.463c0.046-0.188 0.075-0.384 0.075-0.584s-0.029-0.395-0.075-0.583l5.875-3.429c0.446 0.417 1.042 0.675 1.7 0.675 1.379 0 2.5-1.121 2.5-2.5s-1.121-2.5-2.5-2.5-2.5 1.121-2.5 2.5c0 0.2 0.029 0.396 0.075 0.583l-5.875 3.429c-0.446-0.416-1.042-0.675-1.7-0.675-1.379 0-2.5 1.121-2.5 2.5s1.121 2.5 2.5 2.5c0.658 0 1.254-0.258 1.7-0.675l5.938 3.463c-0.042 0.175-0.067 0.358-0.067 0.546 0 1.342 1.087 2.429 2.429 2.429s2.429-1.088 2.429-2.429-1.087-2.429-2.429-2.429z"></path>
</symbol>
<symbol id="icon-star" viewBox="0 0 20 20">
<path d="M10 1.3l2.388 6.722h6.412l-5.232 3.948 1.871 6.928-5.439-4.154-5.438 4.154 1.87-6.928-5.233-3.948h6.412l2.389-6.722z"></path>
</symbol>
<symbol id="icon-thumbs-down" viewBox="0 0 20 20">
<path d="M6.352 12.638c0.133 0.356-3.539 3.634-1.397 6.291 0.501 0.621 2.201-2.975 4.615-4.602 1.331-0.899 4.43-2.811 4.43-3.868v-6.842c0-1.271-4.914-2.617-8.648-2.617-1.369 0-3.352 8.576-3.352 9.939 0 1.367 4.221 1.343 4.352 1.699zM15 12.543c0.658 0 3-0.4 3-3.123v-4.848c0-2.721-2.342-3.021-3-3.021-0.657 0 1 0.572 1 2.26v6.373c0 1.768-1.657 2.359-1 2.359z"></path>
</symbol>
<symbol id="icon-thumbs-up" viewBox="0 0 20 20">
<path d="M13.648 7.362c-0.133-0.355 3.539-3.634 1.398-6.291-0.501-0.621-2.201 2.975-4.615 4.603-1.332 0.898-4.431 2.81-4.431 3.867v6.842c0 1.271 4.914 2.617 8.648 2.617 1.369 0 3.352-8.576 3.352-9.938 0-1.368-4.221-1.344-4.352-1.7zM5 7.457c-0.658 0-3 0.4-3 3.123v4.848c0 2.721 2.342 3.021 3 3.021 0.657 0-1-0.572-1-2.26v-6.373c0-1.768 1.657-2.359 1-2.359z"></path>
</symbol>
<symbol id="icon-user" viewBox="0 0 20 20">
<path d="M7.725 2.146c-1.016 0.756-1.289 1.953-1.239 2.59 0.064 0.779 0.222 1.793 0.222 1.793s-0.313 0.17-0.313 0.854c0.109 1.717 0.683 0.976 0.801 1.729 0.284 1.814 0.933 1.491 0.933 2.481 0 1.649-0.68 2.42-2.803 3.334-2.13 0.918-4.326 2.073-4.326 4.073v1h18v-1c0-2-2.197-3.155-4.328-4.072-2.123-0.914-2.801-1.684-2.801-3.334 0-0.99 0.647-0.667 0.932-2.481 0.119-0.753 0.692-0.012 0.803-1.729 0-0.684-0.314-0.854-0.314-0.854s0.158-1.014 0.221-1.793c0.065-0.817-0.398-2.561-2.3-3.096-0.333-0.34-0.558-0.881 0.466-1.424-2.24-0.105-2.761 1.067-3.954 1.929z"></path>
</symbol>
<symbol id="icon-slideshare" viewBox="0 0 20 20">
<path d="M13 7.080c1.381 0 2.5-1.119 2.5-2.5s-1.119-2.5-2.5-2.5-2.5 1.119-2.5 2.5 1.12 2.5 2.5 2.5zM18.845 5.943c-3.58 2.555-5.229 2.108-6.845 2.057-1.118-0.057-1.5 0.298-1.5 1.080l0.001 6c0 5 8.421 3.43 5.165-4.949 1.671-0.959 3.076-2.434 3.876-3.412 0.411-0.608-0.028-1.245-0.697-0.776zM7 2.080c-1.381 0-2.5 1.119-2.5 2.5s1.119 2.5 2.5 2.5 2.5-1.119 2.5-2.5-1.12-2.5-2.5-2.5zM8 8c-1.616 0.051-3.265 0.498-6.845-2.057-0.669-0.469-1.108 0.168-0.697 0.775 0.8 0.979 2.205 2.453 3.876 3.412-3.256 8.379 5.165 9.949 5.165 4.949l0.001-6c0-0.781-0.382-1.136-1.5-1.079z"></path>
</symbol>
<symbol id="icon-chevron-down" viewBox="0 0 20 20">
<path d="M4.516 7.548c0.436-0.446 1.043-0.481 1.576 0l3.908 3.747 3.908-3.747c0.533-0.481 1.141-0.446 1.574 0 0.436 0.445 0.408 1.197 0 1.615-0.406 0.418-4.695 4.502-4.695 4.502-0.217 0.223-0.502 0.335-0.787 0.335s-0.57-0.112-0.789-0.335c0 0-4.287-4.084-4.695-4.502s-0.436-1.17 0-1.615z"></path>
</symbol>
</defs>
</svg>
